<?xml version="1.0" standalone="no"?>
<!DOCTYPE svg PUBLIC "-//W3C//DTD SVG 20010904//EN"
 "http://www.w3.org/TR/2001/REC-SVG-20010904/DTD/svg10.dtd">
<svg version="1.0" xmlns="http://www.w3.org/2000/svg"
 width="550.000000pt" height="550.000000pt" viewBox="0 0 550.000000 550.000000"
 preserveAspectRatio="xMidYMid meet">
<metadata>
Created by potrace 1.16, written by Peter Selinger 2001-2019
</metadata>
<g transform="translate(0.000000,550.000000) scale(0.100000,-0.100000)"
fill="#000000" stroke="none">
<path d="M2495 5419 c-328 -34 -623 -118 -920 -264 -293 -143 -511 -301 -740
-536 -197 -202 -343 -402 -460 -630 l-54 -106 97 -78 c198 -161 863 -717 1032
-865 96 -83 198 -171 225 -195 l50 -43 485 99 c359 74 488 104 495 116 47 77
105 109 181 100 90 -10 150 -87 141 -180 -5 -55 -28 -92 -78 -125 l-35 -23
-88 -482 c-48 -265 -89 -489 -92 -497 -2 -9 46 -72 117 -154 197 -227 538
-631 788 -936 129 -157 240 -291 247 -299 10 -11 27 -6 107 37 581 310 1012
783 1251 1372 353 870 225 1876 -333 2619 -434 579 -1058 949 -1783 1057 -124
18 -507 26 -633 13z m1657 -1179 c5 0 21 8 36 18 l26 17 -17 -25 c-26 -37 -21
-47 26 -55 l42 -8 -43 -10 c-45 -10 -46 -13 -26 -62 7 -19 7 -19 -13 -2 -28
25 -43 21 -50 -13 -8 -41 -23 -48 -23 -11 0 39 -15 47 -48 25 l-27 -17 18 26
c24 38 22 43 -25 54 l-43 10 43 8 c47 8 50 14 25 53 l-18 27 27 -17 c39 -26
45 -23 53 25 l8 42 10 -42 c5 -24 14 -43 19 -43z m-2063 -32 c1 -25 18 -22 59
9 l35 26 -27 -46 -27 -46 28 -7 c94 -21 93 -20 31 -34 -32 -7 -58 -15 -58 -17
0 -2 9 -22 21 -44 l21 -41 -35 26 c-18 14 -36 26 -39 26 -3 0 -11 -20 -18 -45
-15 -54 -30 -68 -30 -28 0 15 -3 38 -6 51 l-6 23 -35 -21 c-45 -27 -48 -25
-24 9 12 16 21 33 21 38 0 6 -26 16 -57 23 l-58 13 58 12 c32 7 60 14 62 17 3
2 -10 24 -27 47 l-32 44 43 -27 c23 -15 46 -24 50 -21 5 3 13 29 17 58 l7 52
13 -40 c7 -22 13 -48 13 -57z m1766 -2225 c4 -24 11 -43 17 -43 5 0 26 12 45
28 l37 27 -28 -47 -27 -46 58 -13 58 -12 -40 -13 c-22 -7 -48 -13 -57 -13 -23
-1 -22 -9 2 -49 27 -45 25 -48 -11 -18 -17 14 -34 26 -38 26 -5 0 -14 -20 -21
-45 -15 -53 -30 -59 -30 -12 0 53 -13 63 -48 38 -43 -30 -46 -26 -17 17 l25
37 -62 16 -63 15 63 13 c66 13 65 12 30 64 -23 32 -20 33 26 7 19 -12 36 -17
39 -13 3 4 8 30 12 57 8 54 18 47 30 -21z"/>
<path d="M2298 2662 c-230 -48 -418 -90 -418 -93 0 -3 87 -87 193 -187 106
-99 267 -260 357 -357 135 -145 166 -173 172 -158 4 10 41 204 82 431 62 340
73 417 63 433 -6 10 -16 19 -22 18 -5 0 -198 -40 -427 -87z"/>
</g>
</svg>
