<svg id="Layer_1" data-name="Layer 1" xmlns="http://www.w3.org/2000/svg" viewBox="0 0 793.7 255.12">
<defs>
<style>
.cls-1{fill:#06426b;}.cls-2{fill:#93b4e0;}.cls-3{fill:#2464ae;}.cls-4{fill:#b2b2b2;}.cls-5{fill:#dadada;}
</style>
</defs><rect class="cls-1" width="793.7" height="255.12"/><path class="cls-2" d="M287.71,47.07h1.88l33.06,66.33h-10.4l-5.41-10.83H270.47l-5.42,10.83H254.77ZM289.15,65H288L275.11,93.39l-.66,1.11h28.41l-.67-1.11Z"/><path class="cls-2" d="M317.12,47.07h54.94v8.29h-23v58H340v-58H317.12Z"/><path class="cls-2" d="M439.16,113.4H430V84.88H391.85V113.4h-9.07V47.07h9.07V76.7H430V47.07h9.18Z"/><path class="cls-2" d="M498.53,84.66H463.6v20.45h40.24v8.29h-49.3V47.07h49.3v8.29H463.6V76.59h34.93Z"/><path class="cls-2" d="M569.24,69.4c0,10.61-5.86,19.38-14.93,22.47v.45l17.14,19.31v1.77H561.39L544,93.64H523.8V113.4l-9.06.1V47.17l27.74-.1C559.07,47.07,569.24,54.92,569.24,69.4Zm-27-14H523.8v30.1h19.35c9.73,0,16.58-6.22,16.58-15.84S552.88,55.36,542.27,55.36Z"/><path class="cls-2" d="M610,47.07h1.88l33,66.33H634.51l-5.42-10.83H592.72L587.3,113.4H577ZM611.4,65h-1.1L597.36,93.39l-.66,1.11h28.41l-.66-1.11Z"/><path class="cls-2" d="M656.16,100s7.29,6.41,19.89,6.41c11.17,0,15.92-4.31,15.92-10.5,0-5.63-3.76-8.51-17.46-12.38C658.59,79,651.4,74.16,651.4,63.88c0-11.39,9.29-18.24,24.88-18.24,16.58,0,23.87,6.41,23.87,6.41l-5,7.52s-6.74-5.42-18.9-5.42c-9,0-15.26,3.42-15.26,9.61,0,5,4.09,7.52,17.47,11.17,17.35,4.75,23.21,10.61,23.21,20.67,0,11-7.74,19.35-25.53,19.35-17.14,0-25-8.07-25-8.07Z"/><path class="cls-2" d="M280.12,141.61H282l33.05,66.33H304.66l-5.42-10.84H262.87l-5.41,10.84H247.18Zm1.44,17.91h-1.11l-12.93,28.41-.67,1.1h28.41l-.66-1.1Z"/><path class="cls-2" d="M382.7,207.94h-2.54l-47.09-47.65v47.65H324V141.61h2.55l47,47.09V141.61h9.17Z"/><path class="cls-2" d="M424.6,141.61h1.88l33,66.33H449.14l-5.42-10.84H407.36l-5.42,10.84H391.66ZM426,159.52h-1.11L412,187.93l-.66,1.1h28.4l-.66-1.1Z"/><path class="cls-2" d="M468.49,207.94V141.61h9.06v58h37.92v8.29Z"/><path class="cls-2" d="M556.15,141.61h10.5l-25.54,40.9v25.43h-9.17V182.62l-25.43-41h10.62l17.35,28.08,1.88,4.09H537l2-4.09Z"/><path class="cls-2" d="M574,141.61h54.94v8.29h-23v58h-9.06v-58H574Z"/><path class="cls-2" d="M647.18,207.94h-9.07V141.61h9.07Z"/><path class="cls-2" d="M714.51,201.08s-7.41,8.4-23.11,8.4c-20.78,0-34.71-15.36-34.71-34.6,0-19.45,13.93-34.71,34.71-34.71,15.81,0,23.11,8.4,23.11,8.4l-5.2,7.08a27.19,27.19,0,0,0-17.8-6.86c-15,0-25.53,11.61-25.53,26.09s10.5,26,25.53,26a26.19,26.19,0,0,0,17.8-6.85Z"/><path class="cls-2" d="M727.27,194.56s7.29,6.41,19.89,6.41c11.17,0,15.92-4.31,15.92-10.5,0-5.64-3.76-8.51-17.46-12.38-15.92-4.53-23.11-9.4-23.11-19.68,0-11.38,9.29-18.24,24.87-18.24,16.59,0,23.88,6.41,23.88,6.41l-5,7.52s-6.74-5.41-18.91-5.41c-9,0-15.25,3.42-15.25,9.61,0,5,4.09,7.52,17.47,11.17,17.35,4.75,23.21,10.61,23.21,20.67,0,10.94-7.74,19.34-25.54,19.34-17.13,0-25-8.07-25-8.07Z"/><circle class="cls-3" cx="128.61" cy="127.56" r="107.72"/><path class="cls-4" d="M174,162.46c0,.58,2.24,4.6,2.24,4.6s-3.6-2.81-4-2.81-4.72,2.83-4.72,2.83,2.94-4.15,2.94-4.62a44,44,0,0,0-3-4.61s4.18,2.83,4.74,2.83,4.49-2.87,4.49-2.87A44.52,44.52,0,0,0,174,162.46Z"/><path class="cls-5" d="M173.58,164c-.45.44-1.84,5.33-1.84,5.33s-.62-5-.94-5.33-5.89-1.48-5.89-1.48,5.53-.94,5.89-1.3,1.29-5.91,1.29-5.91,1,5.48,1.49,5.91,5.73,1.26,5.73,1.26S173.92,163.61,173.58,164Z"/><path class="cls-4" d="M199.31,122.92a21.23,21.23,0,0,0,1.34,2.77,20.93,20.93,0,0,0-2.41-1.7,22.34,22.34,0,0,0-2.85,1.7,23.85,23.85,0,0,0,1.77-2.77,25.87,25.87,0,0,0-1.78-2.78,21.15,21.15,0,0,0,2.86,1.71,19.21,19.21,0,0,0,2.7-1.73A26.7,26.7,0,0,0,199.31,122.92Z"/><path class="cls-5" d="M199,123.81a24.12,24.12,0,0,0-1.1,3.21,21.62,21.62,0,0,0-.57-3.21,25.43,25.43,0,0,0-3.54-.89,25.78,25.78,0,0,0,3.54-.78,29,29,0,0,0,.78-3.56,23.66,23.66,0,0,0,.89,3.56,21.06,21.06,0,0,0,3.46.76A30.41,30.41,0,0,0,199,123.81Z"/><path class="cls-4" d="M153.27,93.81a17.11,17.11,0,0,0,1.12,2.3,16.64,16.64,0,0,0-2-1.41A18.82,18.82,0,0,0,150,96.12a20.2,20.2,0,0,0,1.47-2.31A22.12,22.12,0,0,0,150,91.5a17.63,17.63,0,0,0,2.37,1.42,16.16,16.16,0,0,0,2.24-1.43A22.7,22.7,0,0,0,153.27,93.81Z"/><path class="cls-5" d="M153.05,94.55a19.89,19.89,0,0,0-.92,2.67,19.09,19.09,0,0,0-.47-2.67,20.92,20.92,0,0,0-2.94-.73,22,22,0,0,0,2.94-.65,23.59,23.59,0,0,0,.65-3,19.33,19.33,0,0,0,.74,3,18.17,18.17,0,0,0,2.87.63A24.1,24.1,0,0,0,153.05,94.55Z"/><path class="cls-4" d="M102.85,72.13a34.88,34.88,0,0,0,2.23,4.6s-3.6-2.82-4-2.82-4.73,2.83-4.73,2.83,2.94-4.15,2.94-4.61a43.2,43.2,0,0,0-3-4.62s4.19,2.84,4.75,2.84,4.49-2.87,4.49-2.87A44.52,44.52,0,0,0,102.85,72.13Z"/><path class="cls-5" d="M102.41,73.61c-.44.45-1.84,5.33-1.84,5.33s-.61-5-.94-5.33-5.89-1.47-5.89-1.47,5.53-.94,5.89-1.3,1.29-5.91,1.29-5.91,1.06,5.47,1.49,5.91,5.74,1.26,5.74,1.26S102.75,73.27,102.41,73.61Z"/><path class="cls-4" d="M185.08,69.61a27.51,27.51,0,0,0,1.76,3.63A26.34,26.34,0,0,0,183.67,71,29.68,29.68,0,0,0,180,73.25a31.18,31.18,0,0,0,2.32-3.64A34.74,34.74,0,0,0,179.94,66a27.81,27.81,0,0,0,3.73,2.23A24.77,24.77,0,0,0,187.21,66,34.89,34.89,0,0,0,185.08,69.61Z"/><path class="cls-5" d="M184.73,70.78a30.25,30.25,0,0,0-1.45,4.2,30,30,0,0,0-.73-4.2,32.67,32.67,0,0,0-4.64-1.16,35.56,35.56,0,0,0,4.64-1,38,38,0,0,0,1-4.66s.83,4.31,1.17,4.66,4.52,1,4.52,1A39.79,39.79,0,0,0,184.73,70.78Z"/><path class="cls-2" d="M127.65,169.85,135,129.64a6.62,6.62,0,0,0,2.74-1.66,6.76,6.76,0,1,0-11.22-6.82L87.1,129.25C61.61,106.64,31,82,31,82A107.72,107.72,0,0,0,174.17,225.17S149.15,194.26,127.65,169.85ZM93,134.49l34.69-7.12a5.27,5.27,0,0,0,.53.61,5.46,5.46,0,0,0,.62.54l-6.48,35.35c-4.94-5.5-9.55-10.46-13.43-14.35C104.39,145,98.91,139.87,93,134.49Z"/></svg>